HIERARCHY
ROOT Hips
{
    OFFSET 0.000000 0.000000 0.000000
    CHANNELS 6 Xposition Yposition Zposition Zrotation Xrotation Yrotation
    JOINT Spine
    {
        OFFSET -0.000000 14.517291 0.000000
        CHANNELS 3 Zrotation Xrotation Yrotation
        JOINT Spine1
        {
            OFFSET -0.000000 37.558300 0.000000
            CHANNELS 3 Zrotation Xrotation Yrotation
            JOINT Neck
            {
                OFFSET -0.000000 37.404057 3.400369
                CHANNELS 3 Zrotation Xrotation Yrotation
                JOINT Head
                {
                    OFFSET -0.000000 24.785618 -3.540803
                    CHANNELS 3 Zrotation Xrotation Yrotation
                    End Site
                    {
                        OFFSET -0.000000 35.408028 0.000000
                    }
                }
            }
            JOINT LeftShoulder
            {
                OFFSET 6.992933 33.973492 -0.192664
                CHANNELS 3 Zrotation Xrotation Yrotation
                JOINT LeftArm
                {
                    OFFSET 21.527611 0.000000 0.000000
                    CHANNELS 3 Zrotation Xrotation Yrotation
                    JOINT LeftForeArm
                    {
                        OFFSET 56.353916 0.000000 0.000000
                        CHANNELS 3 Zrotation Xrotation Yrotation
                        JOINT LeftHand
                        {
                            OFFSET 47.774071 0.000000 0.000000
                            CHANNELS 3 Zrotation Xrotation Yrotation
                            End Site
                            {
                                OFFSET 26.556021 0.000000 0.000000
                            }
                        }
                    }
                }
            }
            JOINT RightShoulder
            {
                OFFSET -7.065357 33.973492 -0.192664
                CHANNELS 3 Zrotation Xrotation Yrotation
                JOINT RightArm
                {
                    OFFSET -21.527611 0.000000 0.000000
                    CHANNELS 3 Zrotation Xrotation Yrotation
                    JOINT RightForeArm
                    {
                        OFFSET -56.353916 0.000000 0.000000
                        CHANNELS 3 Zrotation Xrotation Yrotation
                        JOINT RightHand
                        {
                            OFFSET -47.774071 0.000000 0.000000
                            CHANNELS 3 Zrotation Xrotation Yrotation
                            End Site
                            {
                                OFFSET -26.556021 0.000000 0.000000
                            }
                        }
                    }
                }
            }
        }
    }
    JOINT LeftUpLeg
    {
        OFFSET 17.704014 0.000000 0.000000
        CHANNELS 3 Zrotation Xrotation Yrotation
        JOINT LeftLeg
        {
            OFFSET -0.000000 -81.181816 0.000000
            CHANNELS 3 Zrotation Xrotation Yrotation
            JOINT LeftFoot
            {
                OFFSET -0.000000 -62.821102 0.000000
                CHANNELS 3 Zrotation Xrotation Yrotation
                JOINT LeftToeBase
                {
                    OFFSET -0.000000 -11.507608 26.556021
                    CHANNELS 3 Zrotation Xrotation Yrotation
                    End Site
                    {
                        OFFSET -0.000000 0.000000 7.081605
                    }
                }
            }
        }
    }
    JOINT RightUpLeg
    {
        OFFSET -17.704014 0.000000 0.000000
        CHANNELS 3 Zrotation Xrotation Yrotation
        JOINT RightLeg
        {
            OFFSET -0.000000 -81.181816 0.000000
            CHANNELS 3 Zrotation Xrotation Yrotation
            JOINT RightFoot
            {
                OFFSET -0.000000 -62.821102 0.000000
                CHANNELS 3 Zrotation Xrotation Yrotation
                JOINT RightToeBase
                {
                    OFFSET -0.000000 -11.507608 26.556021
                    CHANNELS 3 Zrotation Xrotation Yrotation
                    End Site
                    {
                        OFFSET -0.000000 0.000000 7.081605
                    }
                }
            }
        }
    }
}
MOTION
Frames:    11
Frame Time:    0.008333
-2.082535    151.745789    -82.865204    -2.388931    -0.159953    22.905954    2.521033    2.003879    0.432189    -3.557925    -1.128274    0.124441    1.802849    4.171110    -12.897510    10.968767    -4.658964    -11.651400    0.944932    7.071878    -13.223545    -33.788349    20.262409    -41.296684    -6.068943    -27.931562    -119.917015    -12.272505    -35.784275    -11.800099    -1.675722    9.737568    -0.930830    26.493483    13.826896    48.634300    -6.523542    7.196856    39.949825    -17.983225    3.612023    36.445072    12.779701    -4.069638    -19.023724    -8.154112    40.223972    -35.215694    15.692006    -30.169857    43.449432    0.000000    0.000000    0.000000    -15.441036    -29.286547    -3.282947    9.567903    23.781870    -8.840953    5.835434    7.955108    -15.966720    0.000000    0.000000    0.000000    
-2.364088    151.853073    -82.654015    -2.336554    -0.235006    23.752588    2.380646    2.007284    0.226547    -3.483519    -1.091961    0.056823    1.725420    4.237110    -13.181485    11.130792    -4.627385    -11.912560    0.978108    7.090744    -13.380869    -33.658840    20.409370    -41.442318    -6.020648    -28.124683    -119.895287    -12.293885    -35.885456    -11.826254    -1.650130    9.755177    -1.112813    26.617186    13.951619    48.332882    -6.766109    6.872263    40.119083    -17.869469    3.476844    36.139927    13.016973    -4.177619    -18.770691    -8.258343    40.010334    -34.949280    15.301124    -30.078020    43.062309    0.000000    0.000000    0.000000    -15.702989    -28.944582    -3.696982    9.728418    23.942545    -9.129460    5.699876    7.591084    -16.172483    0.000000    0.000000    0.000000    
-2.657954    151.970459    -82.423195    -2.292934    -0.354442    24.538490    2.289560    2.054159    0.072374    -3.499502    -1.072753    0.006177    1.707504    4.315783    -13.477283    11.311296    -4.582972    -12.190644    1.094983    7.142441    -13.525170    -33.517540    20.556459    -41.638645    -5.977813    -28.327488    -119.867752    -12.281041    -36.006374    -11.838812    -1.549486    9.780622    -1.316035    26.831347    13.926234    48.021488    -6.844849    6.756031    40.244370    -17.824007    3.428167    36.049526    13.323442    -4.212349    -18.536093    -8.375396    39.735374    -34.873589    14.941459    -29.955769    42.775536    0.000000    0.000000    0.000000    -15.892311    -28.586452    -3.974800    9.856305    24.098932    -9.355103    5.723887    7.276242    -16.406277    0.000000    0.000000    0.000000    
-2.950156    152.074127    -82.215263    -2.218679    -0.414010    25.316536    2.084952    2.032010    -0.049849    -3.422918    -0.994886    -0.041542    1.678447    4.405051    -13.799782    11.490735    -4.582407    -12.491438    1.178110    7.179571    -13.718517    -33.408669    20.619970    -41.808338    -5.969695    -28.420319    -119.854668    -12.194525    -36.087528    -11.812847    -1.461761    9.757908    -1.516017    26.935724    14.060310    47.670483    -7.111956    6.462437    40.383762    -17.683245    3.303902    35.957127    13.543365    -4.313426    -18.191227    -8.411622    39.523682    -34.746624    14.528983    -29.842945    42.386009    0.000000    0.000000    0.000000    -16.141808    -28.294714    -4.520884    9.885529    24.326670    -9.483874    5.706239    6.982176    -16.468353    0.000000    0.000000    0.000000    
-3.232709    152.178009    -81.989632    -2.144164    -0.519215    26.092979    1.908773    2.050891    -0.206117    -3.345744    -0.937814    -0.084555    1.623026    4.488919    -14.096089    11.674400    -4.529950    -12.766582    1.237150    7.195063    -13.876920    -33.277058    20.792974    -41.943924    -5.931672    -28.632189    -119.853241    -12.225730    -36.228176    -11.787552    -1.393452    9.847210    -1.746184    27.063097    14.134384    47.437279    -7.392027    6.184304    40.490501    -17.547436    3.196946    35.862919    13.799370    -4.349822    -17.849895    -8.466639    39.267742    -34.670090    14.157167    -29.729336    42.112923    0.000000    0.000000    0.000000    -16.387447    -27.952347    -4.995496    10.007189    24.529610    -9.747912    5.646278    6.707990    -16.465784    0.000000    0.000000    0.000000    
-3.510744    152.292709    -81.769089    -2.038369    -0.615015    26.880434    1.730016    2.066993    -0.353971    -3.324170    -0.852872    -0.132062    1.530846    4.568735    -14.416928    11.963402    -4.483149    -13.044482    1.341383    7.260332    -14.060994    -33.172119    20.810822    -42.088154    -5.926843    -28.700760    -119.842598    -12.273205    -36.274105    -11.839423    -1.305844    9.853686    -1.963534    27.250385    14.182971    47.142700    -7.437601    5.771199    40.727074    -17.243641    3.010379    35.306160    13.998796    -4.383428    -17.480120    -8.421512    39.028034    -34.630764    13.679807    -29.659845    41.752071    0.000000    0.000000    0.000000    -16.666252    -27.567648    -5.630628    10.082108    24.690256    -9.818137    5.519861    6.458550    -16.478258    0.000000    0.000000    0.000000    
-3.849441    152.387817    -81.547691    -2.027763    -0.683737    27.651966    1.532785    2.035404    -0.513360    -3.207015    -0.802076    -0.184065    1.494584    4.707238    -14.713868    12.188485    -4.498746    -13.307900    1.432169    7.329365    -14.185703    -33.047188    20.909252    -42.273201    -5.878894    -28.844551    -119.787270    -12.382331    -36.309486    -11.962581    -1.210284    9.880787    -2.138719    27.415426    14.266420    46.842754    -7.762499    5.710593    40.742821    -17.361965    3.006196    35.466801    14.319092    -4.511455    -16.985207    -8.403076    38.826229    -34.645649    13.322853    -29.502060    41.392109    0.000000    0.000000    0.000000    -16.843330    -27.295534    -6.274507    10.135693    24.913948    -9.845142    5.411569    6.227746    -16.531731    0.000000    0.000000    0.000000    
-4.156050    152.494019    -81.319046    -1.946014    -0.767908    28.445801    1.345067    2.093452    -0.686805    -3.163583    -0.813996    -0.242938    1.466440    4.788443    -15.001349    12.363073    -4.433194    -13.580763    1.517053    7.407568    -14.332747    -32.903049    21.051306    -42.384941    -5.816200    -29.062590    -119.806702    -12.489035    -36.410656    -12.026242    -1.116650    9.968635    -2.397480    27.574570    14.407786    46.637634    -8.061392    5.412075    40.875786    -17.271784    2.879543    35.339977    14.521685    -4.603290    -16.506678    -8.309245    38.544376    -34.681572    12.809373    -29.348806    41.093906    0.000000    0.000000    0.000000    -17.050882    -26.942854    -7.044268    10.070745    25.115900    -9.867423    5.293265    5.986405    -16.428722    0.000000    0.000000    0.000000    
-4.447604    152.608673    -81.096947    -1.884620    -0.852456    29.244690    1.169551    2.074629    -0.845188    -3.106209    -0.713197    -0.293738    1.478181    4.849502    -15.296137    12.482285    -4.411889    -13.871151    1.618337    7.446345    -14.503768    -32.812687    21.105482    -42.515968    -5.814564    -29.131159    -119.797569    -12.536005    -36.463131    -12.057785    -0.998968    9.963243    -2.610424    27.785666    14.407553    46.295132    -8.101691    5.100209    41.159794    -17.055323    2.747550    34.902740    14.746786    -4.701424    -15.831722    -8.069146    38.370911    -34.687832    12.245181    -29.274292    40.514610    0.000000    0.000000    0.000000    -17.246523    -26.596779    -7.837536    9.996668    25.322298    -9.825734    5.201873    5.776052    -16.379372    0.000000    0.000000    0.000000    
-4.754045    152.717850    -80.888893    -1.836692    -0.929125    30.050003    1.004876    2.087031    -1.043383    -3.046686    -0.668846    -0.359241    1.459619    4.936945    -15.566736    12.631178    -4.395643    -14.126987    1.698104    7.543301    -14.635200    -32.639885    21.184278    -42.661819    -5.769426    -29.295547    -119.793022    -12.552564    -36.546406    -12.086754    -0.900663    9.980989    -2.823046    27.965956    14.472163    46.041019    -8.288421    4.921773    41.296944    -17.013243    2.683761    34.782295    15.019562    -4.735440    -15.909492    -8.386264    37.902107    -34.133865    11.930016    -29.102247    40.277573    0.000000    0.000000    0.000000    -17.437948    -26.263340    -8.557176    9.991622    25.499420    -9.866700    5.073882    5.586534    -16.364403    0.000000    0.000000    0.000000    
-5.044346    152.817276    -80.660187    -1.798620    -1.012506    30.873953    0.878977    2.050841    -1.234733    -3.041284    -0.579988    -0.421517    1.471824    5.046460    -15.840671    12.806852    -4.395415    -14.382870    1.817432    7.607341    -14.800983    -32.513023    21.289888    -42.780464    -5.742946    -29.463776    -119.791100    -12.594611    -36.656349    -12.134091    -0.758759    10.038310    -3.092571    28.054010    14.660110    45.842354    -8.624307    4.593116    41.433540    -16.903599    2.563585    34.566959    15.267616    -4.777039    -15.502237    -8.257028    37.553185    -34.193443    11.585696    -28.978010    40.089577    0.000000    0.000000    0.000000    -17.570297    -25.909546    -9.519729    9.755512    25.715242    -9.713277    5.014928    5.350446    -16.233589    0.000000    0.000000    0.000000    
